<svg width="80" height="80" viewBox="0 0 80 80" fill="none" xmlns="http://www.w3.org/2000/svg">
<g filter="url(#filter0_i_18_23)">
<path d="M15 40C19.6024 40 23.3334 36.2691 23.3334 31.6667C23.3334 27.0643 19.6024 23.3333 15 23.3333C10.3976 23.3333 6.66669 27.0643 6.66669 31.6667C6.66669 36.2691 10.3976 40 15 40Z" fill="#F9DC5C"/>
<path d="M30 26.6667C34.6024 26.6667 38.3334 22.9357 38.3334 18.3333C38.3334 13.731 34.6024 10 30 10C25.3976 10 21.6667 13.731 21.6667 18.3333C21.6667 22.9357 25.3976 26.6667 30 26.6667Z" fill="#F9DC5C"/>
<path d="M50 26.6667C54.6024 26.6667 58.3334 22.9357 58.3334 18.3333C58.3334 13.731 54.6024 10 50 10C45.3976 10 41.6667 13.731 41.6667 18.3333C41.6667 22.9357 45.3976 26.6667 50 26.6667Z" fill="#F9DC5C"/>
<path d="M65 40C69.6024 40 73.3334 36.2691 73.3334 31.6667C73.3334 27.0643 69.6024 23.3333 65 23.3333C60.3976 23.3333 56.6667 27.0643 56.6667 31.6667C56.6667 36.2691 60.3976 40 65 40Z" fill="#F9DC5C"/>
<path d="M57.8 49.5333C54.9 46.1333 52.4667 43.2333 49.5333 39.8333C48 38.0333 46.0333 36.2333 43.7 35.4333C43.3333 35.3 42.9667 35.2 42.6 35.1333C41.7667 35 40.8667 35 40 35C39.1333 35 38.2333 35 37.3667 35.1667C37 35.2333 36.6333 35.3333 36.2667 35.4667C33.9333 36.2667 32 38.0667 30.4333 39.8667C27.5333 43.2667 25.1 46.1667 22.1667 49.5667C17.8 53.9333 12.4333 58.7667 13.4333 65.5333C14.4 68.9333 16.8333 72.3 21.2 73.2667C23.6333 73.7667 31.4 71.8 39.6667 71.8H40.2667C48.5333 71.8 56.3 73.7333 58.7333 73.2667C63.1 72.3 65.5333 68.9 66.5 65.5333C67.5333 58.7333 62.1667 53.9 57.8 49.5333V49.5333Z" fill="#F9DC5C"/>
</g>
<defs>
<filter id="filter0_i_18_23" x="0" y="0" width="80" height="84" filterUnits="userSpaceOnUse" color-interpolation-filters="sRGB">
<feFlood flood-opacity="0" result="BackgroundImageFix"/>
<feBlend mode="normal" in="SourceGraphic" in2="BackgroundImageFix" result="shape"/>
<feColorMatrix in="SourceAlpha" type="matrix" values="0 0 0 0 0 0 0 0 0 0 0 0 0 0 0 0 0 0 127 0" result="hardAlpha"/>
<feOffset dy="4"/>
<feGaussianBlur stdDeviation="2"/>
<feComposite in2="hardAlpha" operator="arithmetic" k2="-1" k3="1"/>
<feColorMatrix type="matrix" values="0 0 0 0 0 0 0 0 0 0 0 0 0 0 0 0 0 0 0.25 0"/>
<feBlend mode="normal" in2="shape" result="effect1_innerShadow_18_23"/>
</filter>
</defs>
</svg>
