<svg width="34" height="34" viewBox="0 0 34 34" fill="none" xmlns="http://www.w3.org/2000/svg">
<path d="M17 3.66668C24.35 3.66668 30.3334 9.65001 30.3334 17C30.3334 24.35 24.35 30.3333 17 30.3333C9.65004 30.3333 3.66671 24.35 3.66671 17C3.66671 9.65001 9.65004 3.66668 17 3.66668ZM17 0.333344C7.80004 0.333344 0.333374 7.80001 0.333374 17C0.333374 26.2 7.80004 33.6667 17 33.6667C26.2 33.6667 33.6667 26.2 33.6667 17C33.6667 7.80001 26.2 0.333344 17 0.333344ZM18.6667 17V10.3333H15.3334V17H10.3334L17 23.6667L23.6667 17H18.6667Z" fill="#ED254E"/>
</svg>
